<svg width="37" height="36" viewBox="0 0 37 36" fill="none" xmlns="http://www.w3.org/2000/svg">
<path fill-rule="evenodd" clip-rule="evenodd" d="M36.5 10C36.5 4.47715 32.0228 0 26.5 0H10.5C4.97715 0 0.5 4.47715 0.5 10V26C0.5 31.5228 4.97715 36 10.5 36H26.5C32.0228 36 36.5 31.5228 36.5 26V10ZM9.13589 21.4656C8.12365 20.4533 8.12365 18.8122 9.13589 17.7999C10.1481 16.7877 11.7893 16.7877 12.8015 17.7999V17.7999C13.8138 18.8122 15.4549 18.8122 16.4672 17.7999L23.7985 10.4687C24.8107 9.45641 26.4519 9.45641 27.4641 10.4687C28.4763 11.4809 28.4763 13.1221 27.4641 14.1343L16.4672 25.1312C15.4549 26.1435 13.8138 26.1435 12.8015 25.1312L9.13589 21.4656Z" fill="#8ACDD7"/>
</svg>
