<svg width="60" height="60" viewBox="0 0 72 72" fill="none" xmlns="http://www.w3.org/2000/svg">
<path d="M36 66C21.8578 66 14.7868 66 10.3934 61.6065C6 57.2133 6 50.142 6 36C6 21.8578 6 14.7868 10.3934 10.3934C14.7868 6 21.8578 6 36 6C50.142 6 57.2133 6 61.6065 10.3934C66 14.7868 66 21.8578 66 36C66 50.142 66 57.2133 61.6065 61.6065C57.2133 66 50.142 66 36 66Z" fill="#8ACDD7"/>
<path d="M36 24.75C37.2426 24.75 38.25 25.7574 38.25 27V33.75H45C46.2426 33.75 47.25 34.7574 47.25 36C47.25 37.2426 46.2426 38.25 45 38.25H38.25V45C38.25 46.2426 37.2426 47.25 36 47.25C34.7574 47.25 33.75 46.2426 33.75 45V38.25H27C25.7574 38.25 24.75 37.2426 24.75 36C24.75 34.7574 25.7574 33.75 27 33.75H33.75V27C33.75 25.7574 34.7574 24.75 36 24.75Z" fill="#424242"/>
</svg>
