<svg width="170" height="36" viewBox="0 0 170 36" fill="none" xmlns="http://www.w3.org/2000/svg">
<path fill-rule="evenodd" clip-rule="evenodd" d="M36.5 10C36.5 4.47715 32.0228 0 26.5 0H10.5C4.97715 0 0.5 4.47715 0.5 10V26C0.5 31.5228 4.97715 36 10.5 36H26.5C32.0228 36 36.5 31.5228 36.5 26V10ZM9.13589 21.4656C8.12365 20.4533 8.12365 18.8122 9.13589 17.7999C10.1481 16.7877 11.7893 16.7877 12.8015 17.7999V17.7999C13.8138 18.8122 15.4549 18.8122 16.4672 17.7999L23.7985 10.4687C24.8107 9.45641 26.4519 9.45641 27.4641 10.4687C28.4763 11.4809 28.4763 13.1221 27.4641 14.1343L16.4672 25.1312C15.4549 26.1435 13.8138 26.1435 12.8015 25.1312L9.13589 21.4656Z" fill="#8ACDD7"/>
<path d="M54.828 26.74C54.348 26.74 53.964 26.612 53.676 26.356C53.388 26.1 53.244 25.748 53.244 25.3V12.172H48.612C48.148 12.172 47.78 12.068 47.508 11.86C47.252 11.636 47.124 11.332 47.124 10.948C47.124 10.548 47.252 10.244 47.508 10.036C47.764 9.812 48.132 9.7 48.612 9.7H61.068C61.548 9.7 61.916 9.812 62.172 10.036C62.428 10.244 62.556 10.548 62.556 10.948C62.556 11.332 62.42 11.636 62.148 11.86C61.892 12.068 61.532 12.172 61.068 12.172H56.436V25.3C56.436 25.732 56.284 26.084 55.98 26.356C55.692 26.612 55.308 26.74 54.828 26.74ZM62.9687 26.74C62.4727 26.74 62.0887 26.612 61.8167 26.356C61.5447 26.1 61.4087 25.748 61.4087 25.3V15.94C61.4087 15.476 61.5367 15.124 61.7927 14.884C62.0647 14.628 62.4407 14.5 62.9207 14.5C63.4007 14.5 63.7767 14.628 64.0487 14.884C64.3207 15.14 64.4567 15.492 64.4567 15.94V16.732C64.9527 16.092 65.5287 15.604 66.1847 15.268C66.8567 14.916 67.5767 14.74 68.3447 14.74H68.8727C69.3847 14.74 69.7767 14.852 70.0487 15.076C70.3367 15.284 70.4807 15.588 70.4807 15.988C70.4807 16.388 70.3367 16.7 70.0487 16.924C69.7767 17.132 69.3847 17.236 68.8727 17.236H68.0567C66.9847 17.236 66.1287 17.58 65.4887 18.268C64.8647 18.94 64.5527 19.868 64.5527 21.052V25.3C64.5527 25.748 64.4087 26.1 64.1207 26.356C63.8327 26.612 63.4487 26.74 62.9687 26.74ZM75.7009 26.74C74.7089 26.74 73.8289 26.572 73.0609 26.236C72.3089 25.9 71.7169 25.436 71.2849 24.844C70.8689 24.236 70.6609 23.54 70.6609 22.756C70.6609 21.572 71.1489 20.628 72.1249 19.924C73.1169 19.22 74.4529 18.868 76.1329 18.868C77.5889 18.868 78.7569 19.18 79.6369 19.804V19.228C79.6369 18.476 79.4049 17.9 78.9409 17.5C78.4769 17.1 77.8049 16.9 76.9249 16.9C75.6129 16.9 74.4849 17.18 73.5409 17.74C73.1409 17.964 72.7969 18.076 72.5089 18.076C72.1569 18.076 71.8449 17.916 71.5729 17.596C71.3969 17.372 71.3089 17.14 71.3089 16.9C71.3089 16.5 71.5169 16.148 71.9329 15.844C72.5089 15.428 73.2369 15.1 74.1169 14.86C74.9969 14.62 75.9249 14.5 76.9009 14.5C78.7569 14.5 80.2129 14.924 81.2689 15.772C82.3409 16.604 82.8769 17.756 82.8769 19.228V25.396C82.8769 25.812 82.7329 26.14 82.4449 26.38C82.1729 26.62 81.7969 26.74 81.3169 26.74C80.8209 26.74 80.4369 26.628 80.1649 26.404C79.8929 26.18 79.7569 25.86 79.7569 25.444V25.18C78.8449 26.22 77.4929 26.74 75.7009 26.74ZM76.4449 24.532C77.4529 24.532 78.2369 24.38 78.7969 24.076C79.3729 23.756 79.6609 23.316 79.6609 22.756C79.6609 22.228 79.3729 21.804 78.7969 21.484C78.2209 21.164 77.4529 21.004 76.4929 21.004C75.6289 21.004 74.9569 21.156 74.4769 21.46C74.0129 21.764 73.7809 22.196 73.7809 22.756C73.7809 23.316 74.0129 23.756 74.4769 24.076C74.9409 24.38 75.5969 24.532 76.4449 24.532ZM91.4914 26.74C89.3474 26.74 87.6834 26.204 86.4994 25.132C85.3154 24.044 84.7234 22.532 84.7234 20.596C84.7234 18.66 85.3154 17.164 86.4994 16.108C87.6834 15.036 89.3474 14.5 91.4914 14.5C92.6274 14.5 93.6514 14.692 94.5634 15.076C95.4914 15.444 96.2194 15.972 96.7474 16.66C96.9394 16.9 97.0354 17.156 97.0354 17.428C97.0354 17.844 96.8194 18.212 96.3874 18.532C96.1954 18.676 95.9554 18.748 95.6674 18.748C95.4434 18.748 95.2114 18.7 94.9714 18.604C94.7314 18.492 94.5234 18.34 94.3474 18.148C94.0274 17.78 93.6114 17.5 93.0994 17.308C92.6034 17.1 92.0674 16.996 91.4914 16.996C90.3554 16.996 89.4674 17.316 88.8274 17.956C88.2034 18.58 87.8914 19.46 87.8914 20.596C87.8914 21.764 88.2034 22.668 88.8274 23.308C89.4674 23.932 90.3554 24.244 91.4914 24.244C92.7554 24.244 93.8354 23.82 94.7314 22.972C95.1794 22.524 95.6194 22.3 96.0514 22.3C96.3394 22.3 96.6034 22.396 96.8434 22.588C97.2274 22.892 97.4194 23.26 97.4194 23.692C97.4194 23.964 97.3074 24.228 97.0834 24.484C96.3474 25.268 95.5234 25.844 94.6114 26.212C93.7154 26.564 92.6754 26.74 91.4914 26.74ZM100.937 26.74C100.441 26.74 100.057 26.612 99.7854 26.356C99.5134 26.1 99.3774 25.748 99.3774 25.3V9.724C99.3774 9.276 99.5134 8.924 99.7854 8.668C100.057 8.412 100.441 8.284 100.937 8.284C101.417 8.284 101.801 8.412 102.089 8.668C102.377 8.924 102.521 9.276 102.521 9.724V19.276L109.529 14.764C109.881 14.54 110.201 14.428 110.489 14.428C110.953 14.428 111.289 14.644 111.497 15.076C111.625 15.364 111.689 15.604 111.689 15.796C111.689 16.212 111.441 16.572 110.945 16.876L107.225 19.18C108.633 20.028 109.681 20.924 110.369 21.868C111.073 22.812 111.505 23.924 111.665 25.204C111.681 25.268 111.689 25.364 111.689 25.492C111.689 25.892 111.569 26.204 111.329 26.428C111.105 26.636 110.785 26.74 110.369 26.74C109.937 26.74 109.577 26.652 109.289 26.476C109.017 26.3 108.841 26.044 108.761 25.708C108.521 24.78 108.249 24.028 107.945 23.452C107.657 22.876 107.273 22.38 106.793 21.964C106.329 21.532 105.697 21.092 104.897 20.644L102.521 22.276V25.3C102.521 25.748 102.377 26.1 102.089 26.356C101.801 26.612 101.417 26.74 100.937 26.74ZM117.731 26.5C116.515 26.5 115.571 26.18 114.899 25.54C114.227 24.9 113.891 24.004 113.891 22.852V13.252C113.891 12.132 114.211 11.26 114.851 10.636C115.507 10.012 116.411 9.7 117.563 9.7H125.027C125.507 9.7 125.875 9.812 126.131 10.036C126.387 10.244 126.515 10.548 126.515 10.948C126.515 11.332 126.379 11.636 126.107 11.86C125.851 12.068 125.491 12.172 125.027 12.172H118.115C117.795 12.172 117.539 12.276 117.347 12.484C117.171 12.692 117.083 12.98 117.083 13.348V16.684H123.203C123.683 16.684 124.051 16.796 124.307 17.02C124.563 17.228 124.691 17.532 124.691 17.932C124.691 18.316 124.555 18.62 124.283 18.844C124.027 19.052 123.667 19.156 123.203 19.156H117.083V22.852C117.083 23.22 117.171 23.508 117.347 23.716C117.539 23.924 117.795 24.028 118.115 24.028H125.555C126.035 24.028 126.403 24.14 126.659 24.364C126.915 24.572 127.043 24.876 127.043 25.276C127.043 25.66 126.907 25.964 126.635 26.188C126.379 26.396 126.019 26.5 125.555 26.5H117.731ZM132.982 26.74C131.99 26.74 131.11 26.572 130.342 26.236C129.59 25.9 128.998 25.436 128.566 24.844C128.15 24.236 127.942 23.54 127.942 22.756C127.942 21.572 128.43 20.628 129.406 19.924C130.398 19.22 131.734 18.868 133.414 18.868C134.87 18.868 136.038 19.18 136.918 19.804V19.228C136.918 18.476 136.686 17.9 136.222 17.5C135.758 17.1 135.086 16.9 134.206 16.9C132.894 16.9 131.766 17.18 130.822 17.74C130.422 17.964 130.078 18.076 129.79 18.076C129.438 18.076 129.126 17.916 128.854 17.596C128.678 17.372 128.59 17.14 128.59 16.9C128.59 16.5 128.798 16.148 129.214 15.844C129.79 15.428 130.518 15.1 131.398 14.86C132.278 14.62 133.206 14.5 134.182 14.5C136.038 14.5 137.494 14.924 138.55 15.772C139.622 16.604 140.158 17.756 140.158 19.228V25.396C140.158 25.812 140.014 26.14 139.726 26.38C139.454 26.62 139.078 26.74 138.598 26.74C138.102 26.74 137.718 26.628 137.446 26.404C137.174 26.18 137.038 25.86 137.038 25.444V25.18C136.126 26.22 134.774 26.74 132.982 26.74ZM133.726 24.532C134.734 24.532 135.518 24.38 136.078 24.076C136.654 23.756 136.942 23.316 136.942 22.756C136.942 22.228 136.654 21.804 136.078 21.484C135.502 21.164 134.734 21.004 133.774 21.004C132.91 21.004 132.238 21.156 131.758 21.46C131.294 21.764 131.062 22.196 131.062 22.756C131.062 23.316 131.294 23.756 131.758 24.076C132.222 24.38 132.878 24.532 133.726 24.532ZM148.077 26.74C145.501 26.74 143.605 25.996 142.389 24.508C142.133 24.172 142.005 23.868 142.005 23.596C142.005 23.212 142.205 22.876 142.605 22.588C142.877 22.412 143.141 22.324 143.397 22.324C143.749 22.324 144.077 22.476 144.381 22.78C144.925 23.324 145.453 23.716 145.965 23.956C146.493 24.18 147.141 24.292 147.909 24.292C148.565 24.292 149.117 24.204 149.565 24.028C150.013 23.852 150.237 23.636 150.237 23.38C150.237 23.06 150.053 22.788 149.685 22.564C149.317 22.34 148.573 22.052 147.453 21.7C145.693 21.156 144.445 20.588 143.709 19.996C142.973 19.388 142.605 18.636 142.605 17.74C142.605 16.732 143.037 15.94 143.901 15.364C144.765 14.788 145.957 14.5 147.477 14.5C148.645 14.5 149.701 14.676 150.645 15.028C151.589 15.38 152.277 15.852 152.709 16.444C152.917 16.716 153.021 16.988 153.021 17.26C153.021 17.644 152.829 17.956 152.445 18.196C152.173 18.372 151.893 18.46 151.605 18.46C151.141 18.46 150.717 18.268 150.333 17.884C150.013 17.58 149.597 17.348 149.085 17.188C148.589 17.028 148.045 16.948 147.453 16.948C146.333 16.948 145.773 17.212 145.773 17.74C145.773 17.948 145.861 18.132 146.037 18.292C146.213 18.452 146.525 18.62 146.973 18.796C147.437 18.972 148.157 19.212 149.133 19.516C150.701 19.996 151.797 20.524 152.421 21.1C153.061 21.676 153.381 22.436 153.381 23.38C153.381 24.388 152.917 25.204 151.989 25.828C151.061 26.436 149.757 26.74 148.077 26.74ZM161.898 26.74C160.522 26.74 159.322 26.492 158.298 25.996C157.274 25.5 156.482 24.804 155.922 23.908C155.378 22.996 155.106 21.932 155.106 20.716C155.106 18.748 155.674 17.22 156.81 16.132C157.962 15.044 159.578 14.5 161.658 14.5C162.938 14.5 164.066 14.7 165.042 15.1C166.034 15.5 166.802 16.06 167.346 16.78C167.906 17.484 168.186 18.292 168.186 19.204C168.186 19.972 167.938 20.564 167.442 20.98C166.962 21.396 166.274 21.604 165.378 21.604H158.154C158.154 22.5 158.466 23.18 159.09 23.644C159.73 24.092 160.666 24.316 161.898 24.316C163.194 24.316 164.298 24.028 165.21 23.452C165.722 23.132 166.122 22.972 166.41 22.972C166.682 22.972 166.946 23.1 167.202 23.356C167.474 23.628 167.61 23.924 167.61 24.244C167.61 24.628 167.45 24.932 167.13 25.156C166.458 25.668 165.674 26.06 164.778 26.332C163.882 26.604 162.922 26.74 161.898 26.74ZM164.418 19.396C164.69 19.396 164.882 19.348 164.994 19.252C165.106 19.14 165.162 18.964 165.162 18.724C165.162 18.164 164.842 17.724 164.202 17.404C163.578 17.084 162.73 16.924 161.658 16.924C160.586 16.924 159.738 17.148 159.114 17.596C158.506 18.044 158.202 18.644 158.202 19.396H164.418Z" fill="#424242"/>
</svg>
