<svg width="18" height="18" viewBox="0 0 18 18" fill="none" xmlns="http://www.w3.org/2000/svg">
<g clip-path="url(#clip0_125_32)">
<path d="M1.125 2.8125C0.814343 2.8125 0.5625 3.06434 0.5625 3.375C0.5625 3.68566 0.814343 3.9375 1.125 3.9375V2.8125ZM16.875 3.9375C17.1857 3.9375 17.4375 3.68566 17.4375 3.375C17.4375 3.06434 17.1857 2.8125 16.875 2.8125V3.9375ZM1.125 3.9375H16.875V2.8125H1.125V3.9375Z" fill="#424242"/>
<path d="M5.625 3.375C5.625 3.68566 5.87684 3.9375 6.1875 3.9375C6.49816 3.9375 6.75 3.68566 6.75 3.375H5.625ZM11.25 3.375C11.25 3.68566 11.5018 3.9375 11.8125 3.9375C12.1232 3.9375 12.375 3.68566 12.375 3.375H11.25ZM10.6875 0.5625H7.3125V1.6875H10.6875V0.5625ZM7.3125 0.5625C6.86494 0.5625 6.43573 0.74029 6.11926 1.05676L6.91475 1.85225C7.02024 1.74677 7.16332 1.6875 7.3125 1.6875V0.5625ZM6.11926 1.05676C5.80279 1.37323 5.625 1.80244 5.625 2.25H6.75C6.75 2.10082 6.80927 1.95774 6.91475 1.85225L6.11926 1.05676ZM5.625 2.25V3.375H6.75V2.25H5.625ZM12.375 3.375V2.25H11.25V3.375H12.375ZM12.375 2.25C12.375 1.80244 12.1972 1.37323 11.8807 1.05676L11.0852 1.85225C11.1908 1.95774 11.25 2.10082 11.25 2.25H12.375ZM11.8807 1.05676C11.5642 0.74029 11.135 0.5625 10.6875 0.5625V1.6875C10.8367 1.6875 10.9798 1.74677 11.0852 1.85225L11.8807 1.05676Z" fill="#424242"/>
<path d="M6.75 12.9375C6.75 13.2482 7.00184 13.5 7.3125 13.5C7.62315 13.5 7.875 13.2482 7.875 12.9375H6.75ZM7.875 7.3125C7.875 7.00184 7.62315 6.75 7.3125 6.75C7.00184 6.75 6.75 7.00184 6.75 7.3125H7.875ZM7.875 12.9375V7.3125H6.75V12.9375H7.875Z" fill="#424242"/>
<path d="M10.125 12.9375C10.125 13.2482 10.3768 13.5 10.6875 13.5C10.9982 13.5 11.25 13.2482 11.25 12.9375H10.125ZM11.25 7.3125C11.25 7.00184 10.9982 6.75 10.6875 6.75C10.3768 6.75 10.125 7.00184 10.125 7.3125H11.25ZM11.25 12.9375V7.3125H10.125V12.9375H11.25Z" fill="#424242"/>
<path d="M3.37306 3.3283C3.34724 3.01871 3.07535 2.78867 2.76577 2.81448C2.45618 2.84029 2.22614 3.11218 2.25194 3.42177L3.37306 3.3283ZM15.748 3.42174C15.7738 3.11215 15.5438 2.84027 15.2342 2.81448C14.9246 2.78868 14.6527 3.01875 14.6269 3.32833L15.748 3.42174ZM13.5882 15.7963C13.5765 15.9369 13.5124 16.0683 13.4085 16.1639L14.1704 16.9917C14.482 16.7049 14.6743 16.3115 14.7093 15.8895L13.5882 15.7963ZM13.4085 16.1639C13.3047 16.2595 13.1687 16.3125 13.0276 16.3125L13.0274 17.4375C13.4509 17.4375 13.8589 17.2785 14.1704 16.9917L13.4085 16.1639ZM13.0276 16.3125H4.97325V17.4375H13.0274L13.0276 16.3125ZM4.97325 16.3125C4.83211 16.3125 4.69607 16.2595 4.59221 16.1639L3.83035 16.9917C4.1419 17.2785 4.54982 17.4375 4.97325 17.4375V16.3125ZM4.59221 16.1639C4.48837 16.0683 4.42424 15.9372 4.41257 15.7965L3.29143 15.8895C3.32643 16.3115 3.51879 16.7049 3.83035 16.9917L4.59221 16.1639ZM4.41257 15.7965L3.37306 3.3283L2.25194 3.42177L3.29143 15.8895L4.41257 15.7965ZM14.6269 3.32833L13.5882 15.7963L14.7093 15.8895L15.748 3.42174L14.6269 3.32833Z" fill="#424242"/>
</g>
<defs>
<clipPath id="clip0_125_32">
<rect width="18" height="18" fill="white"/>
</clipPath>
</defs>
</svg>
